<svg width="20" height="20" viewBox="0 0 20 20" fill="none" xmlns="http://www.w3.org/2000/svg">
<path fill-rule="evenodd" clip-rule="evenodd" d="M6.25 0H13.75C17.2013 0 20 2.79875 20 6.25V13.75C20 17.2013 17.2013 20 13.75 20H6.25C2.79875 20 0 17.2013 0 13.75V6.25C0 2.79875 2.79875 0 6.25 0ZM13.75 18.125C16.1625 18.125 18.125 16.1625 18.125 13.75V6.25C18.125 3.8375 16.1625 1.875 13.75 1.875H6.25C3.8375 1.875 1.875 3.8375 1.875 6.25V13.75C1.875 16.1625 3.8375 18.125 6.25 18.125H13.75Z" fill="#1E2833" style="fill:#1E2833;fill:color(display-p3 0.1176 0.1569 0.2000);fill-opacity:1;"/>
</svg>
